<svg xmlns="http://www.w3.org/2000/svg" xmlns:xlink="http://www.w3.org/1999/xlink" width="500" zoomAndPan="magnify" viewBox="0 0 375 374.999991" height="500" preserveAspectRatio="xMidYMid meet" version="1.0"><defs><g/></defs><path fill="rgb(0%, 29.019165%, 67.83905%)" d="M 115.664062 284.640625 L 221.410156 99.390625 L 9.914062 99.390625 L 115.664062 284.640625 " fill-opacity="1" fill-rule="nonzero"/><g fill="rgb(0%, 0%, 0%)" fill-opacity="1"><g transform="translate(115.557115, 161.641081)"><g/></g></g><path fill="rgb(21.958923%, 71.369934%, 100%)" d="M 260.441406 98.457031 L 367.3125 285.207031 L 153.566406 285.207031 L 260.441406 98.457031 " fill-opacity="1" fill-rule="nonzero"/><g fill="rgb(0%, 0%, 0%)" fill-opacity="1"><g transform="translate(260.264123, 234.957604)"><g/></g></g><path fill="rgb(78.819275%, 88.62915%, 39.608765%)" d="M 91.910156 182.808594 L 283.089844 182.808594 L 283.089844 206.808594 L 91.910156 206.808594 L 91.910156 182.808594 " fill-opacity="1" fill-rule="nonzero"/><g fill="rgb(100%, 100%, 100%)" fill-opacity="1"><g transform="translate(187.499992, 201.55846)"><g/></g></g><path fill="rgb(0%, 0%, 0%)" d="M 115.738281 110.167969 C 99.582031 110.167969 86.488281 123.261719 86.488281 139.417969 C 86.488281 155.570312 99.582031 168.667969 115.738281 168.667969 C 131.890625 168.667969 144.988281 155.570312 144.988281 139.417969 C 144.988281 123.261719 131.890625 110.167969 115.738281 110.167969 " fill-opacity="1" fill-rule="nonzero"/><g fill="rgb(100%, 100%, 100%)" fill-opacity="1"><g transform="translate(115.561, 146.167512)"><g/></g></g><path fill="rgb(100%, 100%, 100%)" d="M 260.445312 217.539062 C 243.875 217.539062 230.445312 230.972656 230.445312 247.539062 C 230.445312 264.109375 243.875 277.539062 260.445312 277.539062 C 277.011719 277.539062 290.445312 264.109375 290.445312 247.539062 C 290.445312 230.972656 277.011719 217.539062 260.445312 217.539062 " fill-opacity="1" fill-rule="nonzero"/><g fill="rgb(100%, 100%, 100%)" fill-opacity="1"><g transform="translate(260.269074, 254.290222)"><g/></g></g></svg>